{"title":"Terminator Salvation [DVDRip-XviD-Ita/Eng-Ac3-Sub-Ita/Eng][Nauti","uid":6062778,"size":1481533121,"categoryP":"video","categoryS":"movies","magnet":"?xt=urn:btih:41a284984f8552a09e180145fdd5d4df1d26d1bb&amp;dn=Terminator+Salvation+%5BDVDRip-XviD-Ita%2FEng-Ac3-Sub-Ita%2FEng%5D%5BNauti&amp;tr=udp%3A%2F%2Ftracker.openbittorrent.com%3A80&amp;tr=udp%3A%2F%2Fopen.demonii.com%3A1337&amp;tr=udp%3A%2F%2Ftracker.coppersurfer.tk%3A6969&amp;tr=udp%3A%2F%2Fexodus.desync.com%3A6969","seeders":0,"leechers":1,"uploader":"maxneb","files":3,"time":1293198595,"description":"Terminator Salvation [DVDRip-XviD-Ita/Eng-Ac3-Sub-Ita/Eng][Nautilus-Bt]\n\n\n\n\nGeneral\nComplete name                    : F:\\Terminator Salvation [DVDRip-XviD-Ita-Eng-Ac3][RiP By MaX].avi\nFormat                           : AVI\nFormat/Info                      : Audio Video Interleave\nFile size                        : 1.38 GiB\nDuration                         : 1h 49mn\nOverall bit rate                 : 1 796 Kbps\nWriting application              : VirtualDubMod 1.5.10.2 (build 2540/release)\nWriting library                  : VirtualDubMod build 2540/release\n\nVideo\nID                               : 0\nFormat                           : MPEG-4 Visual\nFormat profile                   : Advanced Simple@L5\nFormat settings, BVOP            : Yes\nFormat settings, QPel            : No\nFormat settings, GMC             : No warppoints\nFormat settings, Matrix          : Default (H.263)\nCodec ID                         : XVID\nCodec ID/Hint                    : XviD\nDuration                         : 1h 49mn\nBit rate                         : 886 Kbps\nWidth                            : 672 pixels\nHeight                           : 288 pixels\nDisplay aspect ratio             : 2.35:1\nFrame rate                       : 25.000 fps\nColor space                      : YUV\nChroma subsampling               : 4:2:0\nBit depth                        : 8 bits\nScan type                        : Progressive\nBits/(Pixel*Frame)               : 0.183\nStream size                      : 697 MiB (49%)\nWriting library                  : XviD 1.2.1 (UTC 2008-12-04)\n\nAudio #1\nID                               : 1\nFormat                           : AC-3\nFormat/Info                      : Audio Coding 3\nMode extension                   : CM (complete main)\nCodec ID                         : 2000\nDuration                         : 1h 49mn\nBit rate mode                    : Constant\nBit rate                         : 448 Kbps\nChannel(s)                       : 6 channels\nChannel positions                : Front: L C R, Side: L R, LFE\nSampling rate                    : 48.0 KHz\nBit depth                        : 16 bits\nVideo delay                      : 16ms\nStream size                      : 352 MiB (25%)\nAlignment                        : Split accross interleaves\nInterleave, duration             : 40 ms (1.00 video frame)\nInterleave, preload duration     : 500 ms\n\nAudio #2\nID                               : 2\nFormat                           : AC-3\nFormat/Info                      : Audio Coding 3\nMode extension                   : CM (complete main)\nCodec ID                         : 2000\nDuration                         : 1h 49mn\nBit rate mode                    : Constant\nBit rate                         : 448 Kbps\nChannel(s)                       : 6 channels\nChannel positions                : Front: L C R, Side: L R, LFE\nSampling rate                    : 48.0 KHz\nBit depth                        : 16 bits\nVideo delay                      : 16ms\nStream size                      : 352 MiB (25%)\nAlignment                        : Split accross interleaves\nInterleave, duration             : 40 ms (1.00 video frame)\nInterleave, preload duration     : 500 ms","torrent":{"xt":"urn:btih:41a284984f8552a09e180145fdd5d4df1d26d1bb","amp;dn":"Terminator+Salvation+%5BDVDRip-XviD-Ita%2FEng-Ac3-Sub-Ita%2FEng%5D%5BNauti","amp;tr":["udp%3A%2F%2Ftracker.openbittorrent.com%3A80","udp%3A%2F%2Fopen.demonii.com%3A1337","udp%3A%2F%2Ftracker.coppersurfer.tk%3A6969","udp%3A%2F%2Fexodus.desync.com%3A6969"],"infoHash":"41a284984f8552a09e180145fdd5d4df1d26d1bb","infoHashBuffer":{"type":"Buffer","data":[65,162,132,152,79,133,82,160,158,24,1,69,253,213,212,223,29,38,209,187]},"announce":[],"urlList":[]}}